<svg id="Layer_1" data-name="Layer 1" xmlns="http://www.w3.org/2000/svg" viewBox="0 0 2000 2000"><defs><style>.cls-1{fill:#373739;}.cls-2{fill:#00baaf;}</style></defs><path class="cls-1" d="M1704.69,994.63c0-.81,0-1.65,0-2.47,0-1.79-.09-3.55-.16-5.32-.07-1.2-.11-2.4-.18-3.58,0-.86-.09-1.72-.16-2.56-.07-1.32-.16-2.61-.27-3.92q-.21-2.73-.48-5.49c-.16-1.67-.34-3.37-.52-5,0-.21,0-.41-.07-.59-.18-1.54-.38-3.08-.59-4.6-.09-.66-.15-1.29-.25-1.95-.2-1.36-.4-2.72-.61-4.08-.34-2.13-.68-4.26-1.06-6.39,0,0,0-.11,0-.16-.36-2.06-.77-4.12-1.17-6.19s-.84-4.07-1.3-6.09c-.13-.57-.27-1.11-.38-1.66-.36-1.6-.75-3.19-1.16-4.75-.29-1.21-.59-2.38-.9-3.58s-.59-2.25-.91-3.38-.63-2.31-1-3.45-.68-2.28-1-3.44c-.48-1.52-.93-3-1.43-4.56q-1.93-6-4.15-12c-30.5-81.69-100.5-148.22-184.1-173.5-2.45-.75-4.9-1.45-7.37-2.13-1.15-.32-2.31-.63-3.46-.93-.46-.13-.93-.25-1.39-.36-1-.27-2-.5-3-.75-.29-.09-.61-.16-.92-.23l-3-.7-1.17-.27c-1.36-.32-2.72-.61-4.11-.91l-1.65-.34c-1.52-.31-3-.61-4.56-.88-.81-.16-1.63-.32-2.44-.45-1.54-.3-3.11-.55-4.67-.8-2-.31-3.94-.63-5.94-.9-.23,0-.45-.07-.68-.09-2.08-.3-4.17-.55-6.28-.8l-.18,0c-1.65-.18-3.33-.36-5-.52l-2.22-.2-4.13-.34c-1-.07-2.08-.16-3.13-.21a.47.47,0,0,0-.18,0l-4.32-.25c-.46,0-.91,0-1.36,0-1.68-.06-3.38-.13-5.1-.18l-1.86,0c-1.84,0-3.67,0-5.51,0-3.9,0-7.77.07-11.62.23-1.86.09-3.72.18-5.56.29-1.61.09-3.19.18-4.78.32-2.29.16-4.55.36-6.82.59q-9.37.95-18.56,2.47c-91.85,15.31-173,78-212.14,162.28-.68,1.47-1.33,2.92-2,4.4-.36.79-.7,1.58-1,2.38-.59,1.4-1.2,2.83-1.77,4.23-.06.14-.11.28-.18.41-2.33,5.76-4.51,11.58-6.48,17.52-.66,2-1.31,4-1.93,6-24.5,79.88-12,168.95,32.89,239.26.74,1.18,1.51,2.34,2.26,3.47,58.23,88.24,165.34,138.41,268.65,146.53a361.91,361.91,0,0,0,51.12.46,324.69,324.69,0,0,0,117.21-29.93c4.09-1.92,33.39-14,33.39-18.07v-146c-1.34,1-2.7,2-4.06,3s-2.72,2-4.1,2.93-2.76,1.92-4.17,2.85q-6.45,4.35-13.17,8.25c-1.35.79-2.71,1.59-4.1,2.36s-2.78,1.56-4.19,2.31c-3.33,1.79-6.71,3.49-10.11,5.12-1.58.77-3.15,1.52-4.76,2.22s-3.21,1.45-4.85,2.15c-68.95,30.84-154.4,25.14-221-8.94-29.72-15.2-53.68-36.28-64.74-68.35-.44-1.33-.87-2.66-1.27-4h386.86c1.06-4.92,2-9.91,2.83-14.91.2-1.25.41-2.52.59-3.77l.54-3.8c.8-5.74,1.39-11.52,1.82-17.34.09-1,.15-2,.2-3s.11-1.79.16-2.67.11-2,.16-3q.27-6.32.27-12.71C1704.74,997.56,1704.74,996.08,1704.69,994.63ZM1320,955.22h-6.57c0-.32,0-.62,0-.91s0-.59.07-.91c.23-2.85.54-5.66,1-8.43.14-.93.3-1.85.46-2.78s.34-1.84.52-2.75.38-1.81.61-2.72.41-1.79.66-2.69.38-1.57.61-2.34c.27-1,.57-2,.88-3,.77-2.54,1.66-5,2.61-7.46a.77.77,0,0,1,.14-.32c.31-.84.65-1.67,1-2.51s.7-1.68,1.08-2.5c.3-.65.62-1.33.93-2,.07-.18.16-.34.25-.52a4.09,4.09,0,0,1,.23-.47c.29-.66.63-1.3,1-1.93.41-.82.84-1.61,1.27-2.4s.88-1.59,1.34-2.38.88-1.54,1.36-2.31.92-1.55,1.42-2.29,1-1.52,1.5-2.27c1-1.49,2-2.95,3.1-4.37.55-.73,1.09-1.45,1.66-2.16s1.11-1.4,1.68-2.08,1.15-1.38,1.74-2.06c.84-1,1.7-1.93,2.58-2.86.48-.54,1-1.06,1.5-1.58,1-1.09,2.13-2.18,3.22-3.22l.11-.12c1-1,2-1.88,3-2.78a2.36,2.36,0,0,1,.34-.3c.86-.77,1.74-1.52,2.65-2.26.41-.34.81-.68,1.25-1,1-.79,2-1.59,3-2.34,1.38-1,2.78-2,4.21-3,.91-.61,1.79-1.2,2.72-1.79l2.77-1.7c1.85-1.11,3.76-2.17,5.68-3.17.77-.41,1.54-.79,2.34-1.18s1.72-.84,2.58-1.22l1.61-.73c.11,0,.23-.11.34-.16s.39-.15.57-.24l.59-.25c.7-.3,1.4-.59,2.1-.84l1.11-.46.07,0a4.45,4.45,0,0,1,.57-.22c.7-.28,1.43-.55,2.15-.78s1.41-.52,2.13-.74,1.34-.46,2-.66c.86-.27,1.72-.52,2.58-.77s1.91-.52,2.86-.77,1.79-.45,2.69-.66l.91-.2c.82-.21,1.65-.36,2.49-.55a2.7,2.7,0,0,0,.48-.09l.5-.09a.55.55,0,0,1,.18,0c.54-.11,1.09-.2,1.63-.29.93-.16,1.88-.32,2.83-.46l.48-.07c.72-.11,1.45-.2,2.17-.27s1.46-.18,2.18-.25c1-.11,2-.2,3-.27,1.2-.09,2.4-.16,3.6-.2l2-.07c1,0,1.92-.05,2.87-.05,1.41,0,2.81,0,4.22.09.75,0,1.47,0,2.22.1,1,0,2,.13,3,.2,1.63.13,3.24.29,4.85.52l.2,0c.82.09,1.61.21,2.4.34s1.43.21,2.13.34c1,.16,2.07.37,3.09.57.59.11,1.2.25,1.79.38l.65.14a.11.11,0,0,0,.07,0c1.54.34,3.08.73,4.63,1.14a1.08,1.08,0,0,1,.29.09c.52.13,1,.27,1.59.43l2.29.68c.86.27,1.69.54,2.53.84s1.73.58,2.59.9,1.72.64,2.56,1c1.47.56,2.92,1.18,4.37,1.83.93.41,1.86.84,2.77,1.27l.34.16c1.08.52,2.15,1.07,3.21,1.63l.48.23c.16.09.32.16.48.27.88.45,1.74.93,2.58,1.43a2.48,2.48,0,0,1,.47.27c1,.59,2.07,1.2,3.09,1.84,1.49.92,3,1.88,4.44,2.9,1,.63,1.9,1.31,2.83,2l.05.05c1,.72,2,1.47,3,2.24l.61.5c.93.72,1.86,1.49,2.76,2.26a2.4,2.4,0,0,0,.23.21c.5.45,1,.88,1.52,1.33s1,.89,1.52,1.36c.65.62,1.31,1.23,1.94,1.84s1.45,1.38,2.13,2.11,1.41,1.43,2.09,2.17,1.36,1.48,2,2.22,1.31,1.5,1.94,2.27c.93,1.11,1.84,2.24,2.75,3.4s1.74,2.31,2.58,3.49a.62.62,0,0,1,.09.11c.82,1.16,1.61,2.31,2.38,3.49.34.55.7,1.09,1,1.63s.71,1.09,1,1.64a2.67,2.67,0,0,1,.3.49,5.37,5.37,0,0,1,.43.73c.36.57.68,1.11,1,1.7l.09.16.18.32c.06.09.11.2.16.29.2.34.36.66.54,1,.09.16.18.31.25.47a8.77,8.77,0,0,1,.45.86c.16.25.27.5.41.75l.2.41q.42.75.75,1.5c.5,1,1,2,1.43,3a6.81,6.81,0,0,1,.41.91,1.53,1.53,0,0,1,.11.27c.11.2.2.43.3.65.22.5.45,1,.65,1.52.09.21.18.39.25.59.18.46.36.91.55,1.36.34.84.65,1.7,1,2.56s.61,1.7.91,2.59.54,1.58.79,2.4.43,1.43.63,2.13.39,1.29.55,2c.13.47.27.95.38,1.45.25.88.46,1.79.66,2.69s.36,1.57.52,2.36c.14.57.25,1.13.34,1.7.07.32.11.64.18,1s.16.91.23,1.36.11.64.18,1c0,.13,0,.27.07.43v.07c0,.15,0,.31.07.47.06.34.11.7.16,1,.11.75.2,1.52.29,2.27.18,1.5.34,3,.48,4.56q.09,1.15.15,2.31Z"/><rect class="cls-2" x="1777.87" y="495" width="184" height="162"/><path class="cls-1" d="M1052.06,720A112.12,112.12,0,0,0,940,832.18V720.08H756v571H940V930.84a112,112,0,0,1,163-22V732.24A111.51,111.51,0,0,0,1052.06,720Z"/><path class="cls-1" d="M471,719v62.32a243.46,243.46,0,0,0-305-16.38,245.56,245.56,0,0,0-55.87,56,317,317,0,0,0-17.76,362.11l14.14,20.21a4.23,4.23,0,0,0,0,.5c1.17,1.57,2.35,3.13,3.57,4.69a245.81,245.81,0,0,0,55.87,56,243.48,243.48,0,0,0,305-16.39v79.59a213.09,213.09,0,0,1-244,43.69v125.21a286,286,0,0,0,244.57,19.44C578.82,1475,655,1371.07,655,1249.28V719Zm0,245.24v141.31a132.37,132.37,0,0,1-112.18,61.92c-57.67,0-110.1-38.77-126.87-94-5.57-18.36-6.27-37.75-6-56.81.23-17.11-.26-34.55,3.44-51.32A132.59,132.59,0,0,1,471,923.45Z"/><polygon class="cls-1" points="1961.87 719 1777.87 719 1777.87 793.86 1777.87 850.92 1777.87 973.55 1777.87 1174.35 1777.87 1290 1961.87 1290 1961.87 719"/></svg>