<svg id="Layer_1" data-name="Layer 1" xmlns="http://www.w3.org/2000/svg" viewBox="0 0 168 306"><defs><style>.cls-1{fill:#373737;}</style></defs><path class="cls-1" d="M96.28,16.12c.2.22.37.58.61.64,6,1.4,10.61,5.22,14.85,9.4,12.09,12,20.1,26.42,25.21,42.52a51.14,51.14,0,0,1,2.72,18.25,25.53,25.53,0,0,1-1,5.95c-1.86,6.32-6.5,8.46-12.69,6.09s-11-6.4-15.34-11.08a103.53,103.53,0,0,1-22.56-38.7c-2.32-7-3.82-14.21-3.18-21.65A24.71,24.71,0,0,1,86.51,21a6.44,6.44,0,0,1,4.36-4.17c.25-.07.42-.46.62-.7Z"/><path class="cls-1" d="M35.89,132.6c2.76.35,5.35.65,7.92,1,6.3.9,12.59,1.85,18.88,2.76,5.87.86,11.72,1.87,17.62,2.47,2.44.25,5-.33,7.45-.68,8.3-1.15,16.59-2.36,24.87-3.57,4.12-.59,8.23-1.21,12.34-1.82,2.17-.32,2.08-.31,2.07,1.82,0,10.54-.06,21.09,0,31.63,0,1.39-.34,1.77-1.64,2q-17.19,2.32-34.35,4.77c-2.3.32-4.59,1-6.89,1a105.61,105.61,0,0,1-11.64-.86C65,172.14,57.4,171,49.83,170c-4.3-.6-8.6-1.24-12.9-1.83-1.16-.16-1.06-.92-1.06-1.74q0-15.27,0-30.53Z"/><path class="cls-1" d="M82.09,49.05a110.12,110.12,0,0,0,21.68,39.82c-3.79.17-7.32.2-10.82.53-5.73.55-11.47,1.08-17.13,2-5.83,1-11.62,2.29-17.35,3.76a21.7,21.7,0,0,0-10.34,5.67,20.08,20.08,0,0,0-1.41,1.8c3.61.47,6.8.86,10,1.31,6.37.88,12.72,1.82,19.09,2.66a2.52,2.52,0,0,0,1.85-.66c2.77-2.89,6.52-2.43,8.24,1.25a7.18,7.18,0,0,1-.8,7.94,4.5,4.5,0,0,1-7.39-.09c-1.07-1.7-2.44-1.94-4.09-2.17q-11.55-1.59-23.09-3.25c-1.87-.27-3.74-.59-5.61-.94-1.23-.23-1.5.49-1.58,1.45-.41,4.87.39,9.41,3.72,13.23a3.16,3.16,0,0,1,.32.74c-3.91.56-7.69,1.16-11.49,1.58-.48.05-1.29-.79-1.56-1.39A31.28,31.28,0,0,1,32,108.52c.8-9.45,5.88-16.27,13.11-21.81,9.27-7.09,18.22-14.53,25.77-23.48C74.73,58.66,78.31,53.85,82.09,49.05Z"/><path class="cls-1" d="M75.8,132.64l-19.68-2.12a8,8,0,0,1-1.08-.23c-3.16-.76-3.18-.79-3.17-4v-1.47c0-3.28.14-3.74,3.43-4.11,7.23-.81,14.48-1.72,21.74-1.9,7.58-.19,15.19.3,22.77.73a79.09,79.09,0,0,1,9.22,1.52,2.19,2.19,0,0,1,2,2.74,13,13,0,0,0,0,3.3,2.31,2.31,0,0,1-2.24,2.92c-4.29.64-8.58,1.43-12.9,1.74C89.29,132.25,82.66,132.36,75.8,132.64Z"/><path class="cls-1" d="M140.75,288h-120V171.3c24.22,4.41,61.65,8.81,61.65,8.81s30.83-3.3,58.35-8.81Z"/><polygon class="cls-1" points="153.25 302 8.25 302 13.25 293 148.25 293 153.25 302"/></svg>