<svg id="Layer_1" data-name="Layer 1" xmlns="http://www.w3.org/2000/svg" viewBox="0 0 168 306"><defs><style>.cls-1{fill:#373737;}</style></defs><path class="cls-1" d="M120.86,58.54c-.34-7.25-2.18-8.33-9.43-8.56a53,53,0,0,1-10.7-1.47c-3.33-.8-5.24-3.29-5.41-6.81s0-6.71,1.57-9.94c2.36-4.84,2.1-10.15,2-15.38C98.83,8.76,95.34,4.76,87.79,3.67,78.18,2.29,72,7.44,71.88,17.05A43.15,43.15,0,0,0,72,23.78a27.77,27.77,0,0,0,1.81,7.78,21.18,21.18,0,0,1,1.67,9.51c-.1,4-1.74,6.54-5.63,7.53A47,47,0,0,1,59.6,50c-7.61.2-9.36,1.73-9.83,9.41a8.43,8.43,0,0,0,0,.87c.19,8.91.07,17.85.71,26.72a99.52,99.52,0,0,0,3.1,17.06c1,4,3.18,7.52,7.93,8.49-.06.88-.12,1.66-.16,2.44-.37,7.6-1,15.19-1,22.79.05,11.39,1.75,22.57,6.82,32.93a14.33,14.33,0,0,1,1.12,9.39,55.58,55.58,0,0,0,1.1,24.76,166.48,166.48,0,0,1,4.09,19.33,121.7,121.7,0,0,1,.76,16.22c0,2.4-1.58,3.88-4,4.5A65.05,65.05,0,0,0,63.36,247a4.21,4.21,0,0,0-3.11,3.67H84.68c0-1.6-.06-4.68-.06-5.24q0-36.87,0-73.74,0-18.16,0-36.32a8.12,8.12,0,0,1,.08-1.93,2.17,2.17,0,0,1,.15-.4V133a1,1,0,0,1,2,0V250.7h23.71c-.31-2.25-1.79-3.21-3.44-3.82a67,67,0,0,0-6.64-2,4.62,4.62,0,0,1-3.82-4.19,30.42,30.42,0,0,1-.32-7.78c1.34-8.73,2.59-17.51,4.66-26.07,2.18-9,3.3-17.95,1.51-27.1a12,12,0,0,1,1.5-9.32,18.15,18.15,0,0,0,1.48-3.6c4.58-12.4,5.56-25.27,4.93-38.33-.26-5.27-.71-10.53-1.08-16a8.46,8.46,0,0,0,6.52-5.23,37.64,37.64,0,0,0,2.61-7.35C121.42,86.24,121.52,72.38,120.86,58.54ZM100.1,87.25c.66-3.26,1.09-6.33,1.94-9.28s2.14-5.71,3.23-8.56l.54.21c-.8,3.81-1.73,7.59-2.38,11.42s-1,7.72-1.59,12c-3.2-4-6.15-7.67-9.11-11.34C96.13,82.32,98.11,84.65,100.1,87.25Zm-29.62.09c2.26-2.6,4.17-5.11,7.63-5.63q-4.44,5.49-8.93,11c-1.38-8-2.71-15.68-4.05-23.4C68.4,74.68,69.74,80.69,70.48,87.34Zm10,20.87a27.29,27.29,0,0,1-7.16,3.58c-5.36,1.64-8.3,5-8.73,10.58a3.79,3.79,0,0,1-.95,2.22c.33-3.84.62-7.68,1-11.5,0-.36.74-.79,1.22-.94,1.52-.49,3.07-.84,4.6-1.29a16.77,16.77,0,0,0,11.39-10.51c.52-1.31,1-2.63,1.61-4.08A9.45,9.45,0,0,1,80.47,108.21Zm4.39-66.95c-3.1-.1-5.08-2-6.32-4.78,5.56,3.91,6.94,4,12.94.53C89.9,39.37,88,41.37,84.86,41.26Zm21.86,83.54c-.34-1.61-.75-3.2-1-4.81a8.8,8.8,0,0,0-5.87-7.19,69.33,69.33,0,0,1-8.65-4c-4.45-2.62-5.88-7.21-4-12.65A16.91,16.91,0,0,1,88,98c2.34,7.78,7.57,12.36,15.49,13.77,2.27.4,2.89,1.4,2.92,3.56,0,3.15.49,6.29.76,9.43Z"/><path class="cls-1" d="M39.27,254.52h93.17a4.71,4.71,0,0,1,4.71,4.71v0a0,0,0,0,1,0,0H34.57a0,0,0,0,1,0,0v0a4.71,4.71,0,0,1,4.71-4.71Z"/><polygon class="cls-1" points="142.32 263.46 25.08 263.46 14.52 302.26 155 302.26 142.32 263.46"/></svg>