<svg id="Layer_1" data-name="Layer 1" xmlns="http://www.w3.org/2000/svg" viewBox="0 0 168 306"><defs><style>.cls-1{fill:#373737;}</style></defs><path class="cls-1" d="M96.1,167.31c14.74-2.14,28.12-7.15,39.45-17.24l-6.26-7.85c-11.57,9-24.23,14-38.91,14.86-.2-3.22-.37-6-.57-9.21l-4.93.24c-.15,3.22-.29,6-.42,8.8-36.64-1.24-65.24-33.17-62.65-69.27C24.62,48.47,58.26,25.94,84.48,27c.16,2.79.32,5.61.5,8.83l4.89-.36c.18-3.3.34-6.1.51-9.13l9.62.95V17.3c-29.27-6.12-64.12,8-80.61,40.07-8.58,16.72-10.6,34.5-6,52.24,8.64,33.07,31.29,51.89,65,58.15-.2.51-.39,1-.59,1.54H41.93V282h88.21V169.29H96.62C96.45,168.63,96.28,168,96.1,167.31ZM118,237H54V187h64ZM13.33,287v11.08H160V287Z"/><path class="cls-1" d="M87.59,37.29a54.36,54.36,0,1,0,54.25,54.36C141.79,62,117.12,37.32,87.59,37.29Zm-9,78.86C65,114,56.11,108.16,48,96c-10-15,1.35-9.35,9-17,6-6,7-16,18.55-6.37C80.92,77.1,82.86,80.36,84,83,75,102,78.87,116.2,78.56,116.15Zm39.65-10.58c-6.77,13-20.18,20.34-30,16.33S78,105,82.79,91.07c.37-1.07,7.09-23.23,15.1-15.2C104,82,110,86,120.7,87.59,129.56,88.91,119.23,103.61,118.21,105.57Z"/><path class="cls-1" d="M92.12,109.33a32,32,0,0,1-2.32-3.83,13.74,13.74,0,0,1-.78-7c0-.41.52-.78.8-1.17a4.2,4.2,0,0,1,.88.79c3.16,5.54,7.92,8.13,14.28,7.82a3.88,3.88,0,0,1,1.24.36c-.17.41-.23,1-.54,1.21a14.33,14.33,0,0,1-7.46,3.38A9.79,9.79,0,0,1,92.12,109.33Z"/><path class="cls-1" d="M99.37,94.76c-.36-.16-.86-.21-1-.47a6.58,6.58,0,0,0-6.67-3.58,1,1,0,0,1-.71-.42c-.08-.13.07-.49.22-.66a5.73,5.73,0,0,1,6-1c1.58.9,2.82,3.93,2.3,5.59C99.52,94.3,99.5,94.38,99.37,94.76Z"/><path class="cls-1" d="M109,98.78a7.31,7.31,0,0,0-4.54-1.4A3.36,3.36,0,0,1,103.3,97c.24-.33.41-.75.73-1,1.67-1.06,3.47-1.71,5.38-.72s2.49,3,2.5,5.06a3.11,3.11,0,0,1-.46,1.09,6,6,0,0,1-.92-.72C110,100.09,109.52,99.43,109,98.78Z"/><path class="cls-1" d="M97.8,112.35a5.61,5.61,0,0,1-8.52-4.68A8.85,8.85,0,0,0,97.8,112.35Z"/><path class="cls-1" d="M115.61,94.88c-2-3.71-4.92-4.41-8.46-3.22,1.79-1.36,3.71-2.19,5.89-1.29C114.79,91.1,115.54,92.62,115.61,94.88Z"/><path class="cls-1" d="M94.83,83.06a3.74,3.74,0,0,1,4.3-.26c2.12,1.36,2.51,3.46,2.37,5.84C100.66,85.12,98.62,83.07,94.83,83.06Z"/><path class="cls-1" d="M95.29,100.21l5.6,3C98.07,104,96.11,103,95.29,100.21Z"/><path class="cls-1" d="M106.65,104.24c2.24.7,2.7,2,1.34,3.59a11.35,11.35,0,0,1-2.35,1.88C108.36,106.81,108.5,106.22,106.65,104.24Z"/><path class="cls-1" d="M87.13,99.58c.07-1.85,0-3.42,1.4-4.41a1.71,1.71,0,0,1,2.32.33c-.79.28-1.92.35-2.48,1S87.61,98.29,87.13,99.58Z"/><path class="cls-1" d="M64.5,93.14a9.16,9.16,0,0,1,11.83-1.29c.49.35.65,1.17,1,1.78a6.92,6.92,0,0,1-1.61.76,13.63,13.63,0,0,0-10.34,7.81c-.32.65-.49,1.63-1.41,1.34A2.49,2.49,0,0,1,62.59,102,9.07,9.07,0,0,1,64.5,93.14Z"/><path class="cls-1" d="M52.67,88.15c1.7-1.8,5.32-2,6.85-.54.16.15.32.51.25.64a1,1,0,0,1-.67.48,6.47,6.47,0,0,0-6,4.56c-.08.23-.48.53-.63.48a1.06,1.06,0,0,1-.65-.64A6,6,0,0,1,52.67,88.15Z"/><path class="cls-1" d="M70.81,79.21c0,.09.23.38.16.53a1,1,0,0,1-.63.5,6.51,6.51,0,0,0-6,4.55,1,1,0,0,1-.65.5c-.15,0-.45-.23-.54-.42-.81-1.65,0-4.79,1.55-5.92A5.74,5.74,0,0,1,70.81,79.21Z"/><path class="cls-1" d="M75.76,96.73a10.53,10.53,0,0,0-8.27,6.55C67.19,98.39,72.32,95.39,75.76,96.73Z"/><path class="cls-1" d="M61.5,103.35c-3.16-2.64-4.06-7.54-1.78-10.28A13.68,13.68,0,0,0,61.5,103.35Z"/><path class="cls-1" d="M77.74,91.1c-2.62-2.56-5.39-4.31-9-4.54C71.29,85,76.28,87.46,77.74,91.1Z"/><path class="cls-1" d="M66.9,87.8c-.61,1.12-1,2.56-1.88,3.26s-2.39.66-3.62.94l-.22-.36c.39-.3.74-.77,1.18-.86a4.48,4.48,0,0,0,3.06-2.36c.23-.41.79-.63,1.2-.93Z"/></svg>