<svg id="Layer_1" data-name="Layer 1" xmlns="http://www.w3.org/2000/svg" viewBox="0 0 168 306"><defs><style>.cls-1{fill:#373737;}</style></defs><path class="cls-1" d="M133.41,290.84,116,280.8a1.19,1.19,0,0,1-.3-.23H45.63a1.09,1.09,0,0,1-.26.19Q36.52,286,27.69,291.28a.9.9,0,0,0-.53.87c0,3.31-.11,6.63-.16,9.94,0,.17,0,.34,0,.51H133.94v-.7c0-3.36,0-6.71.06-10.07A1,1,0,0,0,133.41,290.84ZM127.67,72.22c-.18-1.57-.42-3.14-.46-4.71-.16-5.17-.32-10.34-.32-15.5,0-3.37.18-6.75.44-10.11a11.82,11.82,0,0,0-.25-4.92c-.5-1.41-1-2.81-1.61-4.19-1.14-2.67-2.32-5.32-3.48-8a9.41,9.41,0,0,0-.82-1.92,43.37,43.37,0,0,0-3.26-4.12,34.4,34.4,0,0,0-9.7-6.95,80.22,80.22,0,0,0-27-8,75.84,75.84,0,0,0-15.94-.36,46.1,46.1,0,0,0-10.19,2,6.15,6.15,0,0,0-3.84,3.23,48.92,48.92,0,0,0-4.13,11.4,10.55,10.55,0,0,0-.31,3.06,4.83,4.83,0,0,1-.48,2.77,34.26,34.26,0,0,1-2.06,3.25,45.35,45.35,0,0,0-7.74,17.57A27.45,27.45,0,0,1,32.91,56a21.7,21.7,0,0,0-1.26,2.56,4.12,4.12,0,0,0-.22,2.64,21.06,21.06,0,0,0,2.88,6.67A86.78,86.78,0,0,0,52.86,88.93a53.6,53.6,0,0,0,12.06,7.21,1.09,1.09,0,0,1,.71,1,37.1,37.1,0,0,1-1,12.77,6.77,6.77,0,0,1-2.2,3.71A19.7,19.7,0,0,0,61,115.06a3.52,3.52,0,0,0-1,2.48c0,1.13-.38,1.64-1.49,1.83a23.43,23.43,0,0,1-3.55.33c-4,.07-8,.08-12,.12-.23,0-.45,0-.78,0-.08,2.12-.22,4.2-.21,6.28a11.35,11.35,0,0,0,2.69,7.26,21.8,21.8,0,0,0,5.07,4.47c2.78,1.8,5.65,3.47,8.42,5.27,1.91,1.24,3.8,2.53,5.58,4s1.72,2,.43,3.75c-1.11,1.47-2.32,2.88-3.55,4.26a28.82,28.82,0,0,0-5.18,7.6,7,7,0,0,1-2.94,3.16c-1.9,1.14-3.74,2.38-5.61,3.57a1.27,1.27,0,0,0-.63,1.25c0,3.48,0,6.95,0,10.42l-.12,43.43c0,14.5-.08,28-.12,42.49,0,15-.08-5.26-.11,9h69.46c0-18.63.07-1.39.1-20.58q0-18.63,0-37.28,0-23.62.06-47.24a1.33,1.33,0,0,0-.36-.84,21.83,21.83,0,0,0-6.21-4.52,5.25,5.25,0,0,1-2.5-2.53,17.82,17.82,0,0,0-1.39-2.63c-1.29-1.83-2.68-3.58-4-5.38-1.23-1.64-2.44-3.28-3.66-4.93a1.1,1.1,0,0,1,0-1.45,16.13,16.13,0,0,1,1.76-2,52.18,52.18,0,0,1,9.08-6.37,42.93,42.93,0,0,0,6.76-4.69,10.82,10.82,0,0,0,3.67-5.51c.54-2.17,1-4.37,1.34-6.57.21-1.2.25-2.43.37-3.7h-1l-13.27.09a18.35,18.35,0,0,1-2.1-.13c-1-.11-1.29-.44-1.29-1.44a5.09,5.09,0,0,0-1-3,1.39,1.39,0,0,0-.55-.5,5,5,0,0,1-2.54-2.79,14.81,14.81,0,0,1-1.26-6c0-3,.13-6,.18-9.06a.93.93,0,0,1,.61-1,79.83,79.83,0,0,0,12.34-7.23A8.55,8.55,0,0,1,111.8,88a4,4,0,0,1,2.65-.48,2.78,2.78,0,0,0,2.23-.4,8.8,8.8,0,0,0,1.53-1.16c1.29-1.31,2.57-2.62,3.77-4,1.56-1.81,3.06-3.69,4.55-5.57A5.35,5.35,0,0,0,127.67,72.22ZM53.5,9a6.33,6.33,0,0,1,1.82-1.41,21.7,21.7,0,0,1,6-1.52,93.34,93.34,0,0,1,13.21-.85c3.79-.15,9,.78,14.16,2a104.91,104.91,0,0,1,12.21,3.34,40.21,40.21,0,0,1,15.45,9.61,19.65,19.65,0,0,1,2,2.4,3.35,3.35,0,0,1,.32,3.45,20.93,20.93,0,0,1-1.48,2.49c-.27.41-.65.43-1,.08-1.54-1.35-3.15-2.62-4.62-4-7.28-7-16-10.88-25.87-12.58a32.77,32.77,0,0,0-8.5-.55A55.2,55.2,0,0,0,63.66,14.4a6.33,6.33,0,0,0-1.36.77,3,3,0,0,1-2.66.51,1.26,1.26,0,0,1-1-1.55c.28-2.22-.87-3.54-3.12-3.62a6.6,6.6,0,0,1-1.66-.25A.72.72,0,0,1,53.5,9Zm-4.25,10.9c.59-1.85,1.19-3.71,1.9-5.52a5.8,5.8,0,0,1,1.28-1.77,1.65,1.65,0,0,1,2.11-.23c.91.5,1.54,1.15,1.38,1.82a18.92,18.92,0,0,1-2.34,7.6,3,3,0,0,1-.19.3C52,24,51.48,24,49.57,22.67A1.61,1.61,0,0,1,49,21.58,4.47,4.47,0,0,1,49.25,19.92ZM44.6,32.08a8.18,8.18,0,0,1,.89-1.23,25.5,25.5,0,0,1,5.14-4.48,23.38,23.38,0,0,1,2.16-1,4.29,4.29,0,0,0,1.35-1,15.2,15.2,0,0,0,1.74-2.56,7.58,7.58,0,0,1,4-3.79c4.12-1.67,8.27-3.31,12.73-3.74,2.87-.27,5.76-.28,8.64-.29,2,0,3.89.17,5.83.32a2.19,2.19,0,0,1,2,1.24,2.1,2.1,0,0,0,1.75,1,6.23,6.23,0,0,1,1.38.25c.61.22.65.81.09,1.14a2.53,2.53,0,0,1-1.15.38,5.52,5.52,0,0,0-2.61.93,26.14,26.14,0,0,0-6.24,5.34,4.61,4.61,0,0,0-1,2,4,4,0,0,1-.82,1.53c-.65.82-1.42,1.55-2.08,2.37a32.53,32.53,0,0,0-2,2.73,2.7,2.7,0,0,0-.27,2c.15.92.21,1.86.28,2.79a1.75,1.75,0,0,1-.07.64c-.16.6-.53.73-.88.23a8.21,8.21,0,0,1-1.17-2.13,2.24,2.24,0,0,0-1.75-1.53,11.54,11.54,0,0,0-6.06.19,14.17,14.17,0,0,0-3.07,1.26,6.62,6.62,0,0,0-3.47,7.74,11.86,11.86,0,0,0,.59,2,2.93,2.93,0,0,0,3,2h.76v0c.41,0,.82,0,1.23,0,.67,0,.82-.22.92-.89a8.05,8.05,0,0,1,.38-1.52c.07-.2.34-.51.48-.48a.93.93,0,0,1,.57.48,4.27,4.27,0,0,1,.31,2.52c0,.17-.06.35-.07.52a1.35,1.35,0,0,0,1.29,1.62,5.77,5.77,0,0,0,1.1.09,2.85,2.85,0,0,1,2.78,1.85,10.34,10.34,0,0,0,.89,1.64A4,4,0,0,0,76.32,56a3.55,3.55,0,0,1,1.16.63c.51.4.41.91-.2,1.17a1.37,1.37,0,0,1-.44.12,4.73,4.73,0,0,1-3.2-.68,1.84,1.84,0,0,1-.73-.79,3.93,3.93,0,0,0-2.06-2.21,21.59,21.59,0,0,0-5.79-1.94,30.62,30.62,0,0,1-8.25-2.66A24,24,0,0,1,52,46.52a4.64,4.64,0,0,1-1.52-2.35,29.17,29.17,0,0,0-1.33-3.3c-.62-1.55-1.25-3.1-1.83-4.67a10.51,10.51,0,0,1-.3-1.6,1.41,1.41,0,0,0-1.38-1.27,2.27,2.27,0,0,1-.72-.2A.67.67,0,0,1,44.6,32.08ZM34.32,61.91a4.08,4.08,0,0,1,0-3.56.73.73,0,0,1,.51-.39.69.69,0,0,1,.49.42c.2.56.32,1.15.47,1.75a13.61,13.61,0,0,1-.48,1.75C35.07,62.44,34.58,62.45,34.32,61.91ZM49.24,79a23.92,23.92,0,0,1-4.08-.66,3,3,0,0,1-1.34-.86,48.56,48.56,0,0,1-6.34-8c-.65-1.1-1.21-2.26-1.84-3.44a5.15,5.15,0,0,1,2.86-.92c1.81,0,3.62.1,5.43.15a96.65,96.65,0,0,0,16.58-.53,68.48,68.48,0,0,0,10.36-2.57A108.54,108.54,0,0,0,107.59,42.5a48.58,48.58,0,0,0,9.78-10.56,33.92,33.92,0,0,1,2.36-3c.35-.41.81-1,1.42-.72s.48.94.53,1.49a3.58,3.58,0,0,0,.14,1,3.71,3.71,0,0,0,.61.85,6.86,6.86,0,0,1,.56.65,24.34,24.34,0,0,1,2.55,5.82,4.81,4.81,0,0,1-.08,2.71,20.83,20.83,0,0,1-5.4,8.71,68.7,68.7,0,0,1-11.37,9.33A138,138,0,0,1,71.26,76.49,65.27,65.27,0,0,1,49.24,79Zm59.52,1.4c.3,1.13.67,2.24,1,3.35.6,1.85.4,2.61-1.13,3.82a17.68,17.68,0,0,1-2,1.36q-3.76,2.19-7.56,4.31a6.59,6.59,0,0,1-1.65.58,1.29,1.29,0,0,1-1.76-1,26.69,26.69,0,0,1-.36-3c-.12-1.32-.18-2.64-.38-4-.06-.46-.47-.85-.69-1.3A5.39,5.39,0,0,1,93.64,83a3.56,3.56,0,0,0-1-2.08A5.16,5.16,0,0,0,89.34,79a1.82,1.82,0,0,1-.7-.27A16.37,16.37,0,0,1,84.36,75c-.19-.24-.4-.66-.31-.86s.55-.27.85-.38c.74-.26,1.52-.46,2.24-.79a176.1,176.1,0,0,0,19.8-10.53c1.08-.66,2.19-1.27,3.32-1.84a4.56,4.56,0,0,1,4.22.12,3.14,3.14,0,0,1,1.67,2.7c.09.62.12,1.24.18,1.86a4.67,4.67,0,0,1-1.39,3.56c-.94,1-1.94,1.92-2.9,2.89-.6.61-1.19,1.23-1.75,1.88A7.14,7.14,0,0,0,108.76,80.36Zm15.1-3.69c-2.4,2.79-4.86,5.54-7.41,8.18-1.4,1.45-2.43,1.28-3.49-.41a46,46,0,0,1-2.26-4.28,7.42,7.42,0,0,1-.36-1.58,5.53,5.53,0,0,1,1.22-3.08,36.18,36.18,0,0,1,6.56-6.64c1.36-1.09,2.24-.87,3.15.63a1.94,1.94,0,0,1,.31.69,5.24,5.24,0,0,0,2,3C125,74.56,125.13,75.19,123.86,76.67ZM126,72.5a2.58,2.58,0,0,1-.44.56,4.81,4.81,0,0,1-.44-.47,2,2,0,0,1,0-2.25,3.93,3.93,0,0,1,.45-.56c.17.81.32,1.48.44,2.15A.92.92,0,0,1,126,72.5Z"/></svg>